<svg width="21" height="21" viewBox="0 0 21 21" fill="none" xmlns="http://www.w3.org/2000/svg">
<path d="M10.5 21L7.38717 17.9336H3.06637V13.6128L0 10.5L3.06637 7.38717V3.06637H7.38717L10.5 0L13.6128 3.06637H17.9336V7.38717L21 10.5L17.9336 13.6128V17.9336H13.6128L10.5 21ZM10.5 15.146C11.7854 15.146 12.8811 14.693 13.7871 13.7871C14.693 12.8811 15.146 11.7854 15.146 10.5C15.146 9.2146 14.693 8.11892 13.7871 7.21294C12.8811 6.30697 11.7854 5.85398 10.5 5.85398C9.2146 5.85398 8.11892 6.30697 7.21294 7.21294C6.30697 8.11892 5.85398 9.2146 5.85398 10.5C5.85398 11.7854 6.30697 12.8811 7.21294 13.7871C8.11892 14.693 9.2146 15.146 10.5 15.146ZM10.5 18.3982L12.823 16.0752H16.0752V12.823L18.3982 10.5L16.0752 8.17699V4.92478H12.823L10.5 2.60177L8.17699 4.92478H4.92478V8.17699L2.60177 10.5L4.92478 12.823V16.0752H8.17699L10.5 18.3982Z" fill="#F9D067"/>
</svg>
